<svg width="390" height="404" viewBox="0 0 390 404" fill="none" xmlns="http://www.w3.org/2000/svg">
<rect width="390" height="404" rx="10" fill="white"/>
<path d="M351.689 78.9209H364.028V87.8418H351.689V101.787H342.29V87.8418H329.917V78.9209H342.29V65.5566H351.689V78.9209Z" fill="#5659ED"/>
<path d="M81.0375 37.0685L89.7624 28.3436L96.0705 34.6517L87.3456 43.3766L97.2064 53.2374L90.56 59.8838L80.6992 50.023L71.9501 58.772L65.6421 52.464L74.3911 43.7149L64.9412 34.265L71.5876 27.6186L81.0375 37.0685Z" fill="#01D48F"/>
<path d="M304.872 66.4907L298.893 64.5073L328.382 25.4896L334.361 27.473L304.872 66.4907Z" fill="#FFD631"/>
<path d="M60.5652 99.8739L43.6397 90.7184L47.4287 83.7137L64.3543 92.8692L60.5652 99.8739Z" fill="#FD8D03"/>
</svg>
