<svg width="49" height="23" viewBox="0 0 49 23" fill="none" xmlns="http://www.w3.org/2000/svg">
<rect width="49" height="23" rx="10" fill="#5659ED"/>
<path d="M14.9902 16V7.46875H17.3984C18.1406 7.46875 18.7969 7.63281 19.3672 7.96094C19.9375 8.28906 20.377 8.75586 20.6855 9.36133C20.998 9.9668 21.1562 10.6621 21.1602 11.4473V11.9922C21.1602 12.7969 21.0039 13.502 20.6914 14.1074C20.3828 14.7129 19.9395 15.1777 19.3613 15.502C18.7871 15.8262 18.1172 15.9922 17.3516 16H14.9902ZM16.1152 8.39453V15.0801H17.2988C18.166 15.0801 18.8398 14.8105 19.3203 14.2715C19.8047 13.7324 20.0469 12.9648 20.0469 11.9688V11.4707C20.0469 10.502 19.8184 9.75 19.3613 9.21484C18.9082 8.67578 18.2637 8.40234 17.4277 8.39453H16.1152ZM26.6094 15.373C26.1875 15.8691 25.5684 16.1172 24.752 16.1172C24.0762 16.1172 23.5605 15.9219 23.2051 15.5312C22.8535 15.1367 22.6758 14.5547 22.6719 13.7852V9.66016H23.7559V13.7559C23.7559 14.7168 24.1465 15.1973 24.9277 15.1973C25.7559 15.1973 26.3066 14.8887 26.5801 14.2715V9.66016H27.6641V16H26.6328L26.6094 15.373ZM31.9473 16.1172C31.0879 16.1172 30.3887 15.8359 29.8496 15.2734C29.3105 14.707 29.041 13.9512 29.041 13.0059V12.8066C29.041 12.1777 29.1602 11.6172 29.3984 11.125C29.6406 10.6289 29.9766 10.2422 30.4062 9.96484C30.8398 9.68359 31.3086 9.54297 31.8125 9.54297C32.6367 9.54297 33.2773 9.81445 33.7344 10.3574C34.1914 10.9004 34.4199 11.6777 34.4199 12.6895V13.1406H30.125C30.1406 13.7656 30.3223 14.2715 30.6699 14.6582C31.0215 15.041 31.4668 15.2324 32.0059 15.2324C32.3887 15.2324 32.7129 15.1543 32.9785 14.998C33.2441 14.8418 33.4766 14.6348 33.6758 14.377L34.3379 14.8926C33.8066 15.709 33.0098 16.1172 31.9473 16.1172ZM31.8125 10.4336C31.375 10.4336 31.0078 10.5938 30.7109 10.9141C30.4141 11.2305 30.2305 11.6758 30.1602 12.25H33.3359V12.168C33.3047 11.6172 33.1562 11.1914 32.8906 10.8906C32.625 10.5859 32.2656 10.4336 31.8125 10.4336Z" fill="white"/>
<path d="M14.9902 16V7.46875H17.3984C18.1406 7.46875 18.7969 7.63281 19.3672 7.96094C19.9375 8.28906 20.377 8.75586 20.6855 9.36133C20.998 9.9668 21.1562 10.6621 21.1602 11.4473V11.9922C21.1602 12.7969 21.0039 13.502 20.6914 14.1074C20.3828 14.7129 19.9395 15.1777 19.3613 15.502C18.7871 15.8262 18.1172 15.9922 17.3516 16H14.9902ZM16.1152 8.39453V15.0801H17.2988C18.166 15.0801 18.8398 14.8105 19.3203 14.2715C19.8047 13.7324 20.0469 12.9648 20.0469 11.9688V11.4707C20.0469 10.502 19.8184 9.75 19.3613 9.21484C18.9082 8.67578 18.2637 8.40234 17.4277 8.39453H16.1152ZM26.6094 15.373C26.1875 15.8691 25.5684 16.1172 24.752 16.1172C24.0762 16.1172 23.5605 15.9219 23.2051 15.5312C22.8535 15.1367 22.6758 14.5547 22.6719 13.7852V9.66016H23.7559V13.7559C23.7559 14.7168 24.1465 15.1973 24.9277 15.1973C25.7559 15.1973 26.3066 14.8887 26.5801 14.2715V9.66016H27.6641V16H26.6328L26.6094 15.373ZM31.9473 16.1172C31.0879 16.1172 30.3887 15.8359 29.8496 15.2734C29.3105 14.707 29.041 13.9512 29.041 13.0059V12.8066C29.041 12.1777 29.1602 11.6172 29.3984 11.125C29.6406 10.6289 29.9766 10.2422 30.4062 9.96484C30.8398 9.68359 31.3086 9.54297 31.8125 9.54297C32.6367 9.54297 33.2773 9.81445 33.7344 10.3574C34.1914 10.9004 34.4199 11.6777 34.4199 12.6895V13.1406H30.125C30.1406 13.7656 30.3223 14.2715 30.6699 14.6582C31.0215 15.041 31.4668 15.2324 32.0059 15.2324C32.3887 15.2324 32.7129 15.1543 32.9785 14.998C33.2441 14.8418 33.4766 14.6348 33.6758 14.377L34.3379 14.8926C33.8066 15.709 33.0098 16.1172 31.9473 16.1172ZM31.8125 10.4336C31.375 10.4336 31.0078 10.5938 30.7109 10.9141C30.4141 11.2305 30.2305 11.6758 30.1602 12.25H33.3359V12.168C33.3047 11.6172 33.1562 11.1914 32.8906 10.8906C32.625 10.5859 32.2656 10.4336 31.8125 10.4336Z" fill="white"/>
<path d="M14.9902 16V7.46875H17.3984C18.1406 7.46875 18.7969 7.63281 19.3672 7.96094C19.9375 8.28906 20.377 8.75586 20.6855 9.36133C20.998 9.9668 21.1562 10.6621 21.1602 11.4473V11.9922C21.1602 12.7969 21.0039 13.502 20.6914 14.1074C20.3828 14.7129 19.9395 15.1777 19.3613 15.502C18.7871 15.8262 18.1172 15.9922 17.3516 16H14.9902ZM16.1152 8.39453V15.0801H17.2988C18.166 15.0801 18.8398 14.8105 19.3203 14.2715C19.8047 13.7324 20.0469 12.9648 20.0469 11.9688V11.4707C20.0469 10.502 19.8184 9.75 19.3613 9.21484C18.9082 8.67578 18.2637 8.40234 17.4277 8.39453H16.1152ZM26.6094 15.373C26.1875 15.8691 25.5684 16.1172 24.752 16.1172C24.0762 16.1172 23.5605 15.9219 23.2051 15.5312C22.8535 15.1367 22.6758 14.5547 22.6719 13.7852V9.66016H23.7559V13.7559C23.7559 14.7168 24.1465 15.1973 24.9277 15.1973C25.7559 15.1973 26.3066 14.8887 26.5801 14.2715V9.66016H27.6641V16H26.6328L26.6094 15.373ZM31.9473 16.1172C31.0879 16.1172 30.3887 15.8359 29.8496 15.2734C29.3105 14.707 29.041 13.9512 29.041 13.0059V12.8066C29.041 12.1777 29.1602 11.6172 29.3984 11.125C29.6406 10.6289 29.9766 10.2422 30.4062 9.96484C30.8398 9.68359 31.3086 9.54297 31.8125 9.54297C32.6367 9.54297 33.2773 9.81445 33.7344 10.3574C34.1914 10.9004 34.4199 11.6777 34.4199 12.6895V13.1406H30.125C30.1406 13.7656 30.3223 14.2715 30.6699 14.6582C31.0215 15.041 31.4668 15.2324 32.0059 15.2324C32.3887 15.2324 32.7129 15.1543 32.9785 14.998C33.2441 14.8418 33.4766 14.6348 33.6758 14.377L34.3379 14.8926C33.8066 15.709 33.0098 16.1172 31.9473 16.1172ZM31.8125 10.4336C31.375 10.4336 31.0078 10.5938 30.7109 10.9141C30.4141 11.2305 30.2305 11.6758 30.1602 12.25H33.3359V12.168C33.3047 11.6172 33.1562 11.1914 32.8906 10.8906C32.625 10.5859 32.2656 10.4336 31.8125 10.4336Z" fill="white"/>
</svg>
