<svg width="14" height="16" viewBox="0 0 14 16" fill="none" xmlns="http://www.w3.org/2000/svg">
<path d="M0.999739 14.2222H13.0003C13.2536 14.2223 13.4975 14.3078 13.6827 14.4616C13.8678 14.6153 13.9804 14.8258 13.9977 15.0505C14.0149 15.2752 13.9356 15.4974 13.7757 15.6721C13.6158 15.8468 13.3873 15.961 13.1363 15.9917L13.0003 16H0.999739C0.746363 15.9999 0.502462 15.9144 0.31732 15.7606C0.132178 15.6069 0.0195974 15.3964 0.00232728 15.1717C-0.0149428 14.947 0.0643848 14.7249 0.224281 14.5502C0.384178 14.3755 0.612722 14.2612 0.863733 14.2305L0.999739 14.2222H13.0003H0.999739ZM6.86399 0.00829626L7 0C7.24166 9.05825e-06 7.47514 0.0777988 7.65727 0.218983C7.8394 0.360168 7.95784 0.555196 7.99071 0.768L8.00004 0.888889V10.0006L11.0068 7.32919C11.1764 7.17851 11.4012 7.08701 11.6404 7.07134C11.8795 7.05568 12.117 7.1169 12.3096 7.24385L12.4216 7.32919C12.5911 7.47991 12.694 7.67975 12.7117 7.89229C12.7293 8.10483 12.6604 8.31593 12.5176 8.48711L12.4216 8.58667L7.7067 12.7763C7.53737 12.9268 7.31289 13.0184 7.07407 13.0342C6.83525 13.0501 6.59794 12.9893 6.40531 12.8628L6.2933 12.7763L1.57843 8.58667C1.3995 8.42806 1.29476 8.21512 1.28526 7.99067C1.27576 7.76621 1.36222 7.54688 1.52724 7.37678C1.69227 7.20668 1.92363 7.09841 2.1748 7.07375C2.42597 7.04909 2.67834 7.10986 2.88115 7.24385L2.99316 7.32919L5.99996 10.003V0.888889C5.99997 0.674089 6.08748 0.466558 6.24632 0.304675C6.40516 0.142792 6.62458 0.0375091 6.86399 0.00829626L7 0L6.86399 0.00829626Z" fill="#6D6D6F"/>
</svg>
