<svg width="49" height="23" viewBox="0 0 49 23" fill="none" xmlns="http://www.w3.org/2000/svg">
<rect width="49" height="23" rx="10" fill="#FFD631"/>
<path d="M20.5469 16H19.416L15.1211 9.42578V16H13.9902V7.46875H15.1211L19.4277 14.0723V7.46875H20.5469V16ZM22.3984 15.4316C22.3984 15.2441 22.4531 15.0879 22.5625 14.9629C22.6758 14.8379 22.8438 14.7754 23.0664 14.7754C23.2891 14.7754 23.457 14.8379 23.5703 14.9629C23.6875 15.0879 23.7461 15.2441 23.7461 15.4316C23.7461 15.6113 23.6875 15.7617 23.5703 15.8828C23.457 16.0039 23.2891 16.0645 23.0664 16.0645C22.8438 16.0645 22.6758 16.0039 22.5625 15.8828C22.4531 15.7617 22.3984 15.6113 22.3984 15.4316ZM30.4199 13.7734H26.8457L26.043 16H24.8828L28.1406 7.46875H29.125L32.3887 16H31.2344L30.4199 13.7734ZM27.1855 12.8477H30.0859L28.6328 8.85742L27.1855 12.8477ZM33.3906 15.4316C33.3906 15.2441 33.4453 15.0879 33.5547 14.9629C33.668 14.8379 33.8359 14.7754 34.0586 14.7754C34.2812 14.7754 34.4492 14.8379 34.5625 14.9629C34.6797 15.0879 34.7383 15.2441 34.7383 15.4316C34.7383 15.6113 34.6797 15.7617 34.5625 15.8828C34.4492 16.0039 34.2812 16.0645 34.0586 16.0645C33.8359 16.0645 33.668 16.0039 33.5547 15.8828C33.4453 15.7617 33.3906 15.6113 33.3906 15.4316Z" fill="white"/>
<path d="M20.5469 16H19.416L15.1211 9.42578V16H13.9902V7.46875H15.1211L19.4277 14.0723V7.46875H20.5469V16ZM22.3984 15.4316C22.3984 15.2441 22.4531 15.0879 22.5625 14.9629C22.6758 14.8379 22.8438 14.7754 23.0664 14.7754C23.2891 14.7754 23.457 14.8379 23.5703 14.9629C23.6875 15.0879 23.7461 15.2441 23.7461 15.4316C23.7461 15.6113 23.6875 15.7617 23.5703 15.8828C23.457 16.0039 23.2891 16.0645 23.0664 16.0645C22.8438 16.0645 22.6758 16.0039 22.5625 15.8828C22.4531 15.7617 22.3984 15.6113 22.3984 15.4316ZM30.4199 13.7734H26.8457L26.043 16H24.8828L28.1406 7.46875H29.125L32.3887 16H31.2344L30.4199 13.7734ZM27.1855 12.8477H30.0859L28.6328 8.85742L27.1855 12.8477ZM33.3906 15.4316C33.3906 15.2441 33.4453 15.0879 33.5547 14.9629C33.668 14.8379 33.8359 14.7754 34.0586 14.7754C34.2812 14.7754 34.4492 14.8379 34.5625 14.9629C34.6797 15.0879 34.7383 15.2441 34.7383 15.4316C34.7383 15.6113 34.6797 15.7617 34.5625 15.8828C34.4492 16.0039 34.2812 16.0645 34.0586 16.0645C33.8359 16.0645 33.668 16.0039 33.5547 15.8828C33.4453 15.7617 33.3906 15.6113 33.3906 15.4316Z" fill="white"/>
<path d="M20.5469 16H19.416L15.1211 9.42578V16H13.9902V7.46875H15.1211L19.4277 14.0723V7.46875H20.5469V16ZM22.3984 15.4316C22.3984 15.2441 22.4531 15.0879 22.5625 14.9629C22.6758 14.8379 22.8438 14.7754 23.0664 14.7754C23.2891 14.7754 23.457 14.8379 23.5703 14.9629C23.6875 15.0879 23.7461 15.2441 23.7461 15.4316C23.7461 15.6113 23.6875 15.7617 23.5703 15.8828C23.457 16.0039 23.2891 16.0645 23.0664 16.0645C22.8438 16.0645 22.6758 16.0039 22.5625 15.8828C22.4531 15.7617 22.3984 15.6113 22.3984 15.4316ZM30.4199 13.7734H26.8457L26.043 16H24.8828L28.1406 7.46875H29.125L32.3887 16H31.2344L30.4199 13.7734ZM27.1855 12.8477H30.0859L28.6328 8.85742L27.1855 12.8477ZM33.3906 15.4316C33.3906 15.2441 33.4453 15.0879 33.5547 14.9629C33.668 14.8379 33.8359 14.7754 34.0586 14.7754C34.2812 14.7754 34.4492 14.8379 34.5625 14.9629C34.6797 15.0879 34.7383 15.2441 34.7383 15.4316C34.7383 15.6113 34.6797 15.7617 34.5625 15.8828C34.4492 16.0039 34.2812 16.0645 34.0586 16.0645C33.8359 16.0645 33.668 16.0039 33.5547 15.8828C33.4453 15.7617 33.3906 15.6113 33.3906 15.4316Z" fill="white"/>
</svg>
