<svg width="49" height="23" viewBox="0 0 49 23" fill="none" xmlns="http://www.w3.org/2000/svg">
<rect width="49" height="23" rx="10" fill="#FD8D03"/>
<path d="M15.1152 12.6602V16H13.9902V7.46875H17.1367C18.0703 7.46875 18.8008 7.70703 19.3281 8.18359C19.8594 8.66016 20.125 9.29102 20.125 10.0762C20.125 10.9043 19.8652 11.543 19.3457 11.9922C18.8301 12.4375 18.0898 12.6602 17.125 12.6602H15.1152ZM15.1152 11.7402H17.1367C17.7383 11.7402 18.1992 11.5996 18.5195 11.3184C18.8398 11.0332 19 10.623 19 10.0879C19 9.58008 18.8398 9.17383 18.5195 8.86914C18.1992 8.56445 17.7598 8.40625 17.2012 8.39453H15.1152V11.7402ZM25.2344 16C25.1719 15.875 25.1211 15.6523 25.082 15.332C24.5781 15.8555 23.9766 16.1172 23.2773 16.1172C22.6523 16.1172 22.1387 15.9414 21.7363 15.5898C21.3379 15.2344 21.1387 14.7852 21.1387 14.2422C21.1387 13.582 21.3887 13.0703 21.8887 12.707C22.3926 12.3398 23.0996 12.1562 24.0098 12.1562H25.0645V11.6582C25.0645 11.2793 24.9512 10.9785 24.7246 10.7559C24.498 10.5293 24.1641 10.416 23.7227 10.416C23.3359 10.416 23.0117 10.5137 22.75 10.709C22.4883 10.9043 22.3574 11.1406 22.3574 11.418H21.2676C21.2676 11.1016 21.3789 10.7969 21.6016 10.5039C21.8281 10.207 22.1328 9.97266 22.5156 9.80078C22.9023 9.62891 23.3262 9.54297 23.7871 9.54297C24.5176 9.54297 25.0898 9.72656 25.5039 10.0938C25.918 10.457 26.1328 10.959 26.1484 11.5996V14.5176C26.1484 15.0996 26.2227 15.5625 26.3711 15.9062V16H25.2344ZM23.4355 15.1738C23.7754 15.1738 24.0977 15.0859 24.4023 14.9102C24.707 14.7344 24.9277 14.5059 25.0645 14.2246V12.9238H24.2148C22.8867 12.9238 22.2227 13.3125 22.2227 14.0898C22.2227 14.4297 22.3359 14.6953 22.5625 14.8867C22.7891 15.0781 23.0801 15.1738 23.4355 15.1738ZM29.0254 16H27.9414V9.66016H29.0254V16ZM27.8535 7.97852C27.8535 7.80273 27.9062 7.6543 28.0117 7.5332C28.1211 7.41211 28.2812 7.35156 28.4922 7.35156C28.7031 7.35156 28.8633 7.41211 28.9727 7.5332C29.082 7.6543 29.1367 7.80273 29.1367 7.97852C29.1367 8.1543 29.082 8.30078 28.9727 8.41797C28.8633 8.53516 28.7031 8.59375 28.4922 8.59375C28.2812 8.59375 28.1211 8.53516 28.0117 8.41797C27.9062 8.30078 27.8535 8.1543 27.8535 7.97852ZM30.502 12.7773C30.502 11.8047 30.7324 11.0234 31.1934 10.4336C31.6543 9.83984 32.2578 9.54297 33.0039 9.54297C33.7461 9.54297 34.334 9.79688 34.7676 10.3047V7H35.8516V16H34.8555L34.8027 15.3203C34.3691 15.8516 33.7656 16.1172 32.9922 16.1172C32.2578 16.1172 31.6582 15.8164 31.1934 15.2148C30.7324 14.6133 30.502 13.8281 30.502 12.8594V12.7773ZM31.5859 12.9004C31.5859 13.6191 31.7344 14.1816 32.0312 14.5879C32.3281 14.9941 32.7383 15.1973 33.2617 15.1973C33.9492 15.1973 34.4512 14.8887 34.7676 14.2715V11.3594C34.4434 10.7617 33.9453 10.4629 33.2734 10.4629C32.7422 10.4629 32.3281 10.668 32.0312 11.0781C31.7344 11.4883 31.5859 12.0957 31.5859 12.9004Z" fill="white"/>
<path d="M15.1152 12.6602V16H13.9902V7.46875H17.1367C18.0703 7.46875 18.8008 7.70703 19.3281 8.18359C19.8594 8.66016 20.125 9.29102 20.125 10.0762C20.125 10.9043 19.8652 11.543 19.3457 11.9922C18.8301 12.4375 18.0898 12.6602 17.125 12.6602H15.1152ZM15.1152 11.7402H17.1367C17.7383 11.7402 18.1992 11.5996 18.5195 11.3184C18.8398 11.0332 19 10.623 19 10.0879C19 9.58008 18.8398 9.17383 18.5195 8.86914C18.1992 8.56445 17.7598 8.40625 17.2012 8.39453H15.1152V11.7402ZM25.2344 16C25.1719 15.875 25.1211 15.6523 25.082 15.332C24.5781 15.8555 23.9766 16.1172 23.2773 16.1172C22.6523 16.1172 22.1387 15.9414 21.7363 15.5898C21.3379 15.2344 21.1387 14.7852 21.1387 14.2422C21.1387 13.582 21.3887 13.0703 21.8887 12.707C22.3926 12.3398 23.0996 12.1562 24.0098 12.1562H25.0645V11.6582C25.0645 11.2793 24.9512 10.9785 24.7246 10.7559C24.498 10.5293 24.1641 10.416 23.7227 10.416C23.3359 10.416 23.0117 10.5137 22.75 10.709C22.4883 10.9043 22.3574 11.1406 22.3574 11.418H21.2676C21.2676 11.1016 21.3789 10.7969 21.6016 10.5039C21.8281 10.207 22.1328 9.97266 22.5156 9.80078C22.9023 9.62891 23.3262 9.54297 23.7871 9.54297C24.5176 9.54297 25.0898 9.72656 25.5039 10.0938C25.918 10.457 26.1328 10.959 26.1484 11.5996V14.5176C26.1484 15.0996 26.2227 15.5625 26.3711 15.9062V16H25.2344ZM23.4355 15.1738C23.7754 15.1738 24.0977 15.0859 24.4023 14.9102C24.707 14.7344 24.9277 14.5059 25.0645 14.2246V12.9238H24.2148C22.8867 12.9238 22.2227 13.3125 22.2227 14.0898C22.2227 14.4297 22.3359 14.6953 22.5625 14.8867C22.7891 15.0781 23.0801 15.1738 23.4355 15.1738ZM29.0254 16H27.9414V9.66016H29.0254V16ZM27.8535 7.97852C27.8535 7.80273 27.9062 7.6543 28.0117 7.5332C28.1211 7.41211 28.2812 7.35156 28.4922 7.35156C28.7031 7.35156 28.8633 7.41211 28.9727 7.5332C29.082 7.6543 29.1367 7.80273 29.1367 7.97852C29.1367 8.1543 29.082 8.30078 28.9727 8.41797C28.8633 8.53516 28.7031 8.59375 28.4922 8.59375C28.2812 8.59375 28.1211 8.53516 28.0117 8.41797C27.9062 8.30078 27.8535 8.1543 27.8535 7.97852ZM30.502 12.7773C30.502 11.8047 30.7324 11.0234 31.1934 10.4336C31.6543 9.83984 32.2578 9.54297 33.0039 9.54297C33.7461 9.54297 34.334 9.79688 34.7676 10.3047V7H35.8516V16H34.8555L34.8027 15.3203C34.3691 15.8516 33.7656 16.1172 32.9922 16.1172C32.2578 16.1172 31.6582 15.8164 31.1934 15.2148C30.7324 14.6133 30.502 13.8281 30.502 12.8594V12.7773ZM31.5859 12.9004C31.5859 13.6191 31.7344 14.1816 32.0312 14.5879C32.3281 14.9941 32.7383 15.1973 33.2617 15.1973C33.9492 15.1973 34.4512 14.8887 34.7676 14.2715V11.3594C34.4434 10.7617 33.9453 10.4629 33.2734 10.4629C32.7422 10.4629 32.3281 10.668 32.0312 11.0781C31.7344 11.4883 31.5859 12.0957 31.5859 12.9004Z" fill="white"/>
<path d="M15.1152 12.6602V16H13.9902V7.46875H17.1367C18.0703 7.46875 18.8008 7.70703 19.3281 8.18359C19.8594 8.66016 20.125 9.29102 20.125 10.0762C20.125 10.9043 19.8652 11.543 19.3457 11.9922C18.8301 12.4375 18.0898 12.6602 17.125 12.6602H15.1152ZM15.1152 11.7402H17.1367C17.7383 11.7402 18.1992 11.5996 18.5195 11.3184C18.8398 11.0332 19 10.623 19 10.0879C19 9.58008 18.8398 9.17383 18.5195 8.86914C18.1992 8.56445 17.7598 8.40625 17.2012 8.39453H15.1152V11.7402ZM25.2344 16C25.1719 15.875 25.1211 15.6523 25.082 15.332C24.5781 15.8555 23.9766 16.1172 23.2773 16.1172C22.6523 16.1172 22.1387 15.9414 21.7363 15.5898C21.3379 15.2344 21.1387 14.7852 21.1387 14.2422C21.1387 13.582 21.3887 13.0703 21.8887 12.707C22.3926 12.3398 23.0996 12.1562 24.0098 12.1562H25.0645V11.6582C25.0645 11.2793 24.9512 10.9785 24.7246 10.7559C24.498 10.5293 24.1641 10.416 23.7227 10.416C23.3359 10.416 23.0117 10.5137 22.75 10.709C22.4883 10.9043 22.3574 11.1406 22.3574 11.418H21.2676C21.2676 11.1016 21.3789 10.7969 21.6016 10.5039C21.8281 10.207 22.1328 9.97266 22.5156 9.80078C22.9023 9.62891 23.3262 9.54297 23.7871 9.54297C24.5176 9.54297 25.0898 9.72656 25.5039 10.0938C25.918 10.457 26.1328 10.959 26.1484 11.5996V14.5176C26.1484 15.0996 26.2227 15.5625 26.3711 15.9062V16H25.2344ZM23.4355 15.1738C23.7754 15.1738 24.0977 15.0859 24.4023 14.9102C24.707 14.7344 24.9277 14.5059 25.0645 14.2246V12.9238H24.2148C22.8867 12.9238 22.2227 13.3125 22.2227 14.0898C22.2227 14.4297 22.3359 14.6953 22.5625 14.8867C22.7891 15.0781 23.0801 15.1738 23.4355 15.1738ZM29.0254 16H27.9414V9.66016H29.0254V16ZM27.8535 7.97852C27.8535 7.80273 27.9062 7.6543 28.0117 7.5332C28.1211 7.41211 28.2812 7.35156 28.4922 7.35156C28.7031 7.35156 28.8633 7.41211 28.9727 7.5332C29.082 7.6543 29.1367 7.80273 29.1367 7.97852C29.1367 8.1543 29.082 8.30078 28.9727 8.41797C28.8633 8.53516 28.7031 8.59375 28.4922 8.59375C28.2812 8.59375 28.1211 8.53516 28.0117 8.41797C27.9062 8.30078 27.8535 8.1543 27.8535 7.97852ZM30.502 12.7773C30.502 11.8047 30.7324 11.0234 31.1934 10.4336C31.6543 9.83984 32.2578 9.54297 33.0039 9.54297C33.7461 9.54297 34.334 9.79688 34.7676 10.3047V7H35.8516V16H34.8555L34.8027 15.3203C34.3691 15.8516 33.7656 16.1172 32.9922 16.1172C32.2578 16.1172 31.6582 15.8164 31.1934 15.2148C30.7324 14.6133 30.502 13.8281 30.502 12.8594V12.7773ZM31.5859 12.9004C31.5859 13.6191 31.7344 14.1816 32.0312 14.5879C32.3281 14.9941 32.7383 15.1973 33.2617 15.1973C33.9492 15.1973 34.4512 14.8887 34.7676 14.2715V11.3594C34.4434 10.7617 33.9453 10.4629 33.2734 10.4629C32.7422 10.4629 32.3281 10.668 32.0312 11.0781C31.7344 11.4883 31.5859 12.0957 31.5859 12.9004Z" fill="white"/>
</svg>
