<svg width="35" height="35" viewBox="0 0 35 35" fill="none" xmlns="http://www.w3.org/2000/svg">
<circle cx="17.5" cy="17.5" r="17.5" fill="#FFD7D7" fill-opacity="0.51"/>
<path d="M18 8C13.03 8 9 12.03 9 17H6L9.89 20.89L9.96 21.03L14 17H11C11 13.13 14.13 10 18 10C21.87 10 25 13.13 25 17C25 20.87 21.87 24 18 24C16.07 24 14.32 23.21 13.06 21.94L11.64 23.36C13.27 24.99 15.51 26 18 26C22.97 26 27 21.97 27 17C27 12.03 22.97 8 18 8ZM17 13V18L21.28 20.54L22 19.33L18.5 17.25V13H17Z" fill="#FF0000"/>
</svg>
