<svg width="20" height="18" viewBox="0 0 20 18" fill="none" xmlns="http://www.w3.org/2000/svg">
<path d="M14 18C17.527 16.453 19.999 13.091 19.999 9C19.999 4.909 17.527 1.547 14 0V2C16.387 3.386 17.999 6.047 17.999 9C17.999 11.953 16.387 14.614 14 16V18Z" fill="black"/>
<path d="M14 4V14C15.225 12.9 16 10.771 16 9C16 7.229 15.225 5.1 14 4ZM2 14H4.697L10.445 17.832C10.5958 17.9321 10.7708 17.9896 10.9516 17.9984C11.1324 18.0072 11.3122 17.967 11.472 17.882C11.6316 17.7965 11.765 17.6694 11.858 17.514C11.951 17.3587 12.0001 17.181 12 17V1C11.9999 0.819116 11.9508 0.641644 11.8578 0.486487C11.7648 0.331329 11.6315 0.204297 11.472 0.118919C11.3125 0.0335415 11.1329 -0.00698383 10.9522 0.00165936C10.7715 0.0103026 10.5966 0.0677905 10.446 0.168L4.697 4H2C0.897 4 0 4.897 0 6V12C0 13.103 0.897 14 2 14ZM2 6H5C5.033 6 5.061 5.984 5.093 5.981C5.22601 5.96744 5.35509 5.92803 5.473 5.865C5.499 5.85 5.53 5.848 5.555 5.832L10 2.868V15.132L5.555 12.168C5.53 12.151 5.499 12.148 5.473 12.135C5.35491 12.0707 5.22491 12.0312 5.091 12.019C5.059 12.016 5.032 12 5 12H2V6Z" fill="black"/>
</svg>
