<svg width="42" height="44" viewBox="0 0 42 44" fill="none" xmlns="http://www.w3.org/2000/svg">
<ellipse cx="21" cy="22" rx="21" ry="22" fill="#08A0F7"/>
<path d="M29.01 25.38C27.78 25.38 26.59 25.18 25.48 24.82C25.13 24.7 24.74 24.79 24.47 25.06L22.9 27.03C20.07 25.68 17.42 23.13 16.01 20.2L17.96 18.54C18.23 18.26 18.31 17.87 18.2 17.52C17.83 16.41 17.64 15.22 17.64 13.99C17.64 13.45 17.19 13 16.65 13H13.19C12.65 13 12 13.24 12 13.99C12 23.28 19.73 31 29.01 31C29.72 31 30 30.37 30 29.82V26.37C30 25.83 29.55 25.38 29.01 25.38Z" fill="white"/>
</svg>
