<svg width="40" height="40" viewBox="0 0 40 40" fill="none" xmlns="http://www.w3.org/2000/svg">
<circle cx="20" cy="20" r="20" fill="#3800FF"/>
<path d="M27.4731 20.536C27.5091 20.236 27.5331 19.924 27.5331 19.6C27.5331 19.276 27.5091 18.964 27.4611 18.664L29.4891 17.08C29.6691 16.936 29.7171 16.672 29.6091 16.468L27.6891 13.144C27.5691 12.928 27.3171 12.856 27.1011 12.928L24.7131 13.888C24.2091 13.504 23.6811 13.192 23.0931 12.952L22.7331 10.408C22.6971 10.168 22.4931 10 22.2531 10H18.4131C18.1731 10 17.9811 10.168 17.9451 10.408L17.5851 12.952C16.9971 13.192 16.4571 13.516 15.9651 13.888L13.5771 12.928C13.3611 12.844 13.1091 12.928 12.9891 13.144L11.0691 16.468C10.9491 16.684 10.9971 16.936 11.1891 17.08L13.2171 18.664C13.1691 18.964 13.1331 19.288 13.1331 19.6C13.1331 19.912 13.1571 20.236 13.2051 20.536L11.1771 22.12C10.9971 22.264 10.9491 22.528 11.0571 22.732L12.9771 26.056C13.0971 26.272 13.3491 26.344 13.5651 26.272L15.9531 25.312C16.4571 25.696 16.9851 26.008 17.5731 26.248L17.9331 28.792C17.9811 29.032 18.1731 29.2 18.4131 29.2H22.2531C22.4931 29.2 22.6971 29.032 22.7211 28.792L23.0811 26.248C23.6691 26.008 24.2091 25.684 24.7011 25.312L27.0891 26.272C27.3051 26.356 27.5571 26.272 27.6771 26.056L29.5971 22.732C29.7171 22.516 29.6691 22.264 29.4771 22.12L27.4731 20.536V20.536ZM20.3331 23.2C18.3531 23.2 16.7331 21.58 16.7331 19.6C16.7331 17.62 18.3531 16 20.3331 16C22.3131 16 23.9331 17.62 23.9331 19.6C23.9331 21.58 22.3131 23.2 20.3331 23.2Z" fill="white"/>
</svg>
