<svg width="175" height="179" viewBox="0 0 175 179" fill="none" xmlns="http://www.w3.org/2000/svg">
<path d="M174.917 91.2263C174.917 83.8886 174.321 78.534 173.033 72.9811H89.2432V106.1H138.426C137.434 114.33 132.08 126.725 120.181 135.054L120.014 136.163L146.506 156.687L148.342 156.87C165.199 141.302 174.917 118.396 174.917 91.2263Z" fill="#4285F4"/>
<path d="M89.2432 178.486C113.338 178.486 133.567 170.553 148.342 156.87L120.181 135.054C112.645 140.31 102.53 143.979 89.2432 143.979C65.6435 143.979 45.6135 128.411 38.4733 106.894L37.4268 106.982L9.8793 128.302L9.51904 129.303C24.1944 158.456 54.3389 178.486 89.2432 178.486Z" fill="#34A853"/>
<path d="M38.4733 106.894C36.5894 101.341 35.499 95.3907 35.499 89.2431C35.499 83.0949 36.5894 77.1456 38.3742 71.5928L38.3243 70.4101L10.4316 48.7484L9.51904 49.1825C3.47061 61.2801 0 74.8651 0 89.2431C0 103.621 3.47061 117.206 9.51904 129.303L38.4733 106.894Z" fill="#FBBC05"/>
<path d="M89.2432 34.5071C106.001 34.5071 117.305 41.7457 123.75 47.7948L148.937 23.2032C133.468 8.8252 113.338 0 89.2432 0C54.3389 0 24.1944 20.03 9.51904 49.1825L38.3742 71.5928C45.6135 50.0753 65.6435 34.5071 89.2432 34.5071Z" fill="#EB4335"/>
</svg>
